<?xml version="1.0" encoding="UTF-8"?><svg xmlns="http://www.w3.org/2000/svg" width="100%" height="100%"><text x="60" y="90" stroke="blue">Temperatures °C</text><text x="1015" y="600" stroke="blue">Villes</text><line x1="100" y1="100" x2="100" y2="600" stroke="green" stroke-width="2"/><line x1="100" y1="600" x2="1000" y2="600" stroke="green" stroke-width="2"/><text stroke="blue" x="110" y="620">Casa</text><rect width="20" height="300" x="110" y="300" stroke="blue" fill="yellow"><animate attributeName="height" dur="3s" from="0" to="300"/><animate attributeName="y" dur="3s" from="600" to="300"/></rect><text x="110" y="290">30</text><text stroke="blue" x="220" y="620">Rabat</text><rect width="20" height="280" x="220" y="320" stroke="blue" fill="yellow"><animate attributeName="height" dur="3s" from="0" to="280"/><animate attributeName="y" dur="3s" from="600" to="320"/></rect><text x="220" y="310">28</text><text stroke="blue" x="330" y="620">Fes</text><rect width="20" height="450" x="330" y="150" stroke="blue" fill="yellow"><animate attributeName="height" dur="3s" from="0" to="450"/><animate attributeName="y" dur="3s" from="600" to="150"/></rect><text x="330" y="140">45</text><text stroke="blue" x="440" y="620">Oujda</text><rect width="20" height="430" x="440" y="170" stroke="blue" fill="yellow"><animate attributeName="height" dur="3s" from="0" to="430"/><animate attributeName="y" dur="3s" from="600" to="170"/></rect><text x="440" y="160">43</text><text stroke="blue" x="550" y="620">Tanger</text><rect width="20" height="300" x="550" y="300" stroke="blue" fill="yellow"><animate attributeName="height" dur="3s" from="0" to="300"/><animate attributeName="y" dur="3s" from="600" to="300"/></rect><text x="550" y="290">30</text><text stroke="blue" x="660" y="620">Marrakech</text><rect width="20" height="450" x="660" y="150" stroke="blue" fill="yellow"><animate attributeName="height" dur="3s" from="0" to="450"/><animate attributeName="y" dur="3s" from="600" to="150"/></rect><text x="660" y="140">45</text><text stroke="blue" x="770" y="620">Ouarzazat</text><rect width="20" height="400" x="770" y="200" stroke="blue" fill="yellow"><animate attributeName="height" dur="3s" from="0" to="400"/><animate attributeName="y" dur="3s" from="600" to="200"/></rect><text x="770" y="190">40</text><text stroke="blue" x="880" y="620">Agadir</text><rect width="20" height="380" x="880" y="220" stroke="blue" fill="yellow"><animate attributeName="height" dur="3s" from="0" to="380"/><animate attributeName="y" dur="3s" from="600" to="220"/></rect><text x="880" y="210">38</text></svg>